<svg width="86" height="86" viewBox="0 0 86 86" fill="none" xmlns="http://www.w3.org/2000/svg">
<rect width="86" height="86" rx="43" fill="#2E2E2E"/>
<path d="M69.6813 44.6657V44.3487C69.6813 44.4543 69.6813 44.56 69.6813 44.6657ZM66.6616 57.2378C64.4147 61.1585 61.1641 64.4097 57.2442 66.657C54.5981 68.1756 51.6977 69.1996 48.6848 69.6791H69.6831V48.6821C69.2031 51.6937 68.1793 54.5928 66.6616 57.2378Z" fill="#56FFFD"/>
<path d="M69.4771 41.1242C69.4234 40.7033 69.3571 40.2823 69.2855 39.8703C68.4019 34.9056 66.0454 30.3216 62.5225 26.7142C62.5091 26.699 62.4947 26.6846 62.4795 26.6712C61.9052 26.074 61.3022 25.5121 60.6705 24.9855C57.2872 22.1099 53.2 20.1864 48.8281 19.4124C48.4161 19.3389 47.997 19.2727 47.5744 19.2207C45.4337 18.9486 43.2672 18.9486 41.1266 19.2207C40.7057 19.2727 40.2884 19.3389 39.8728 19.4124C35.3059 20.2245 31.0503 22.2777 27.5722 25.3474C24.0941 28.417 21.5274 32.3847 20.1533 36.8159C19.844 37.818 19.5958 38.838 19.41 39.8703C19.3366 40.2823 19.2703 40.7033 19.2184 41.1242C18.9487 43.2655 18.9487 45.4321 19.2184 47.5733C19.2703 47.9925 19.3366 48.4135 19.41 48.8273C19.5958 49.8601 19.844 50.8807 20.1533 51.8834C21.1624 55.1093 22.8066 58.1005 24.9892 60.681C25.4966 61.2782 26.034 61.8556 26.6011 62.4133C29.4697 65.2383 32.969 67.3401 36.8101 68.5453C37.8093 68.8538 38.826 69.102 39.8549 69.2887C40.2704 69.3604 40.6878 69.4267 41.1087 69.4786C42.1777 69.6176 43.2546 69.687 44.3325 69.6864V60.2296C43.3148 60.194 42.3029 60.0596 41.311 59.8283V59.5811C38.3596 58.9582 35.6448 57.5123 33.4806 55.4107C32.9091 54.858 32.3804 54.2628 31.8991 53.63C29.8445 50.9422 28.7407 47.6479 28.7611 44.2646C28.786 40.164 30.4257 36.2384 33.3248 33.3388C36.2238 30.4392 40.1486 28.7992 44.2484 28.7743H44.329C47.6842 28.7726 50.9466 29.8762 53.612 31.9146C54.2405 32.3924 54.8321 32.917 55.3816 33.4839C57.4883 35.65 58.9372 38.3696 59.5601 41.3267H59.8072C60.0385 42.3187 60.1728 43.3308 60.2084 44.3488H69.6652C69.6655 43.2706 69.5968 42.1936 69.4592 41.1242" fill="white"/>
<path d="M44.3503 60.2297C44.456 60.2297 44.5634 60.2386 44.6691 60.2404V69.6847H44.3503V60.2297Z" fill="#030303"/>
<path d="M59.9146 44.6659H60.2316C60.2316 44.759 60.2316 44.845 60.2316 44.9489C60.2333 48.7078 58.8504 52.3356 56.347 55.1392C53.8436 57.9428 50.3953 59.7257 46.6608 60.1472C46.0948 60.2121 45.5255 60.2444 44.9557 60.2439C44.859 60.2439 44.7659 60.2439 44.6745 60.2439V59.9251C45.2323 59.9234 45.7895 59.8917 46.3438 59.8301C50.0722 59.4085 53.5153 57.6303 56.0177 54.834C58.5202 52.0377 59.9072 48.4187 59.9146 44.6659Z" fill="#030303"/>
<path d="M69.6829 44.3487C69.6829 44.4543 69.6829 44.56 69.6829 44.6657H60.2369C60.2369 44.5606 60.2333 44.4549 60.2261 44.3487H69.6829Z" fill="#030303"/>
<path d="M57.2441 66.6643H66.6614L66.6616 57.2378C64.4147 61.1585 61.1641 64.4097 57.2442 66.657M66.4823 44.3416C66.4698 44.4473 66.4572 44.553 66.4429 44.6586H66.6614V41.3266C66.6616 42.3367 66.6018 43.3458 66.4823 44.3487M44.3503 66.4851C43.3475 66.6047 42.3386 66.6645 41.3288 66.6643H44.6691V66.4457L44.3503 66.4851Z" fill="#56FFFD"/>
<path d="M66.4555 38.1021C66.4036 37.6812 66.3373 37.2602 66.2639 36.8482C65.497 32.5484 63.6208 28.5235 60.8209 25.1718L60.6704 24.9926C56.8763 20.4719 51.6146 17.4283 45.8047 16.3939C45.3927 16.3204 44.9754 16.2542 44.551 16.2022C42.4101 15.9326 40.244 15.9326 38.1032 16.2022C37.6823 16.2542 37.2649 16.3204 36.8494 16.3939C32.285 17.2097 28.0325 19.2642 24.5562 22.333C21.0799 25.4018 18.5134 29.367 17.1371 33.7956C16.8287 34.795 16.5805 35.8119 16.3938 36.841C16.3222 37.253 16.2559 37.674 16.2022 38.095C15.9326 40.2362 15.9326 42.4028 16.2022 44.544C16.2559 44.9614 16.3222 45.3824 16.3938 45.798C16.5802 46.8307 16.8284 47.8512 17.1371 48.8542C18.5845 53.4615 21.3121 57.5621 25.0016 60.6774L25.1807 60.8208C27.7216 62.9353 30.652 64.5316 33.8064 65.5196C34.8053 65.8289 35.8222 66.0772 36.8512 66.263C37.2667 66.3347 37.6841 66.4028 38.105 66.4547C39.1741 66.5922 40.2509 66.661 41.3288 66.6607V56.8976C38.003 56.8411 34.778 55.7463 32.1049 53.7662L31.9258 53.6265C29.337 51.6682 27.4279 48.9467 26.4677 45.8455C25.5076 42.7444 25.5448 39.42 26.5741 36.3411C27.6034 33.2622 29.573 30.5841 32.205 28.6844C34.8371 26.7846 37.9989 25.759 41.2447 25.7522H41.3271C43.7145 25.758 46.068 26.3175 48.2027 27.3868C50.3374 28.4561 52.1951 30.006 53.6298 31.9146L53.7713 32.0938C55.7485 34.7676 56.8412 37.9925 56.8967 41.3177H66.6615C66.6618 40.2396 66.593 39.1625 66.4555 38.0932" fill="#4A60FF"/>
<path d="M56.9002 41.6079C56.9006 42.1783 56.8683 42.7483 56.8035 43.3151C56.7533 43.7725 56.6829 44.2227 56.5921 44.6658C55.994 47.6048 54.5446 50.3029 52.4245 52.4241C50.3045 54.5452 47.6073 55.9957 44.6691 56.5948C44.2249 56.6856 43.7741 56.7566 43.3168 56.808C42.7502 56.8722 42.1803 56.9039 41.61 56.9029H41.3288V41.3266H56.8966C56.8966 41.4198 56.8966 41.5058 56.8966 41.6079" fill="#3ED8FF"/>
<path d="M69.6831 48.6821C69.2031 51.6937 68.1793 54.5928 66.6616 57.2378C64.4147 61.1585 61.1641 64.4097 57.2442 66.657C53.4161 68.8495 49.0804 70.0009 44.6691 69.9963H70V44.6659C70.0009 46.0109 69.8951 47.3538 69.6831 48.6821Z" fill="#3ED8FF"/>
<path d="M69.7941 41.4414C69.7422 41.0204 69.6759 40.6012 69.6025 40.1874C68.6949 35.0712 66.221 30.3632 62.5225 26.7142C62.5091 26.699 62.4947 26.6846 62.4795 26.6712C61.9493 26.1493 61.3964 25.6495 60.8209 25.1718C57.4684 22.3743 53.4437 20.5008 49.1451 19.7367C48.7331 19.6651 48.3158 19.597 47.8913 19.545C45.7505 19.2754 43.5843 19.2754 41.4435 19.545C41.0244 19.597 40.6053 19.6651 40.1898 19.7367C35.6253 20.5513 31.3724 22.605 27.8957 25.6732C24.419 28.7415 21.8522 32.7064 20.4757 37.1349C20.168 38.1343 19.9204 39.1512 19.7342 40.1803C19.6607 40.5941 19.5945 41.0133 19.5425 41.4342C19.2706 43.5753 19.2706 45.7422 19.5425 47.8833C19.5945 48.3007 19.6607 48.7217 19.7342 49.1373C19.9197 50.17 20.1674 51.1905 20.4757 52.1934C21.4614 55.3482 23.0556 58.2792 25.1682 60.8208C25.6231 61.3708 26.1032 61.8957 26.6011 62.4098C29.527 65.3932 33.1438 67.6084 37.1307 68.8589C38.1296 69.1681 39.1464 69.4164 40.1755 69.6023C40.5892 69.6758 41.0083 69.742 41.4292 69.794C42.4983 69.9314 43.5752 70.0003 44.6531 70V60.2368C44.5474 60.2368 44.44 60.2368 44.3343 60.2261C43.3165 60.1905 42.3046 60.0561 41.3128 59.8248C38.3336 59.1325 35.6157 57.5992 33.4823 55.4072C30.6548 52.5128 29.0748 48.6248 29.0817 44.5782C29.107 40.4779 30.7469 36.5528 33.6459 33.6535C36.5449 30.7543 40.4694 29.1146 44.5689 29.0897H44.6495C48.6614 29.1054 52.5102 30.6797 55.3833 33.4804C57.58 35.616 59.1163 38.3385 59.809 41.3232C60.0402 42.3152 60.1746 43.3273 60.2102 44.3453C60.2102 44.4504 60.2138 44.5561 60.2209 44.6623H69.984C69.9842 43.5842 69.9154 42.5072 69.778 41.4378" fill="white"/>
<path d="M60.2388 44.9489C60.2403 48.7089 58.8563 52.3376 56.3515 55.1414C53.8466 57.9452 50.3966 59.7273 46.6608 60.1472C46.0948 60.2121 45.5255 60.2444 44.9557 60.2439C44.859 60.2439 44.7659 60.2439 44.6745 60.2439V44.6659L60.2369 44.6657C60.2369 44.7589 60.237 44.845 60.237 44.9489" fill="white"/>
</svg>
