<svg width="170" height="32" viewBox="0 0 170 32" fill="none" xmlns="http://www.w3.org/2000/svg">
<path d="M15.0539 22.503H8.71501L11.5765 25.6561C11.4186 25.6663 11.2549 25.6706 11.0854 25.6706C9.9882 25.6691 8.91608 25.343 8.00435 24.7334C7.09263 24.1238 6.38218 23.2581 5.9627 22.2456C5.54323 21.233 5.43353 20.1191 5.64746 19.0443C5.86139 17.9696 6.38936 16.9822 7.16471 16.2069C8.06954 15.3113 9.25504 14.7534 10.5226 14.6267C11.7902 14.5 13.0629 14.8122 14.1275 15.5109C15.1921 16.2096 15.984 17.2525 16.3705 18.4648C16.757 19.6771 16.7147 20.9853 16.2506 22.1702L20.1959 26.4954C21.5173 24.6471 22.1775 22.5247 22.1765 20.1284C22.1765 17.0665 21.0942 14.4531 18.9296 12.2883C16.765 10.1235 14.1522 9.04064 11.0912 9.03967C8.02824 9.03967 5.41398 10.1221 3.24838 12.2869C1.08279 14.4516 0 17.065 0 20.127C0 23.1908 1.08279 25.8047 3.24838 27.9685C5.41398 30.1323 8.02824 31.2147 11.0912 31.2157C12.6973 31.2338 14.2877 30.8984 15.7493 30.2331L16.6375 31.2157H22.9749L15.0539 22.503Z" fill="white"/>
<path d="M45.586 12.2319C43.401 10.0391 40.768 8.94325 37.6867 8.94421C34.6054 8.94518 31.9689 10.0411 29.7772 12.2319C27.5923 14.415 26.4999 17.0467 26.4999 20.127C26.4999 23.2073 27.5923 25.8428 29.7772 28.0337C31.9622 30.2187 34.5986 31.3112 37.6867 31.3112C40.7747 31.3112 43.4078 30.2187 45.586 28.0337C47.7776 25.8506 48.8735 23.215 48.8735 20.127C48.8735 17.039 47.7776 14.4073 45.586 12.2319ZM41.6305 24.0803C41.1115 24.5983 40.4953 25.009 39.8174 25.2891C39.1394 25.5692 38.4128 25.7132 37.679 25.7129C36.1972 25.7122 34.7764 25.1237 33.7291 24.0767C32.6817 23.0298 32.0937 21.6102 32.0944 20.1302C32.0951 18.6503 32.6844 17.2312 33.7327 16.1852C34.5157 15.4078 35.5113 14.8788 36.5944 14.6649C37.6775 14.4509 38.7998 14.5615 39.8201 14.9827C40.8405 15.404 41.7134 16.1171 42.3291 17.0324C42.9449 17.9477 43.276 19.0243 43.2808 20.127C43.292 20.8638 43.1513 21.595 42.8674 22.2751C42.5835 22.9552 42.1625 23.5697 41.6305 24.0803Z" fill="white"/>
<path d="M71.7544 12.2319C69.5724 10.0391 66.9398 8.94325 63.8566 8.94421C60.7734 8.94518 58.1369 10.0411 55.9472 12.2319C53.7623 14.415 52.6698 17.0467 52.6698 20.127C52.6698 23.2073 53.7623 25.8428 55.9472 28.0337C58.133 30.2187 60.7695 31.3112 63.8566 31.3112C66.9437 31.3112 69.5763 30.2187 71.7544 28.0337C73.9432 25.8506 75.0376 23.215 75.0376 20.127C75.0376 17.039 73.9413 14.4073 71.7486 12.2319M67.7947 24.0803C67.2756 24.5983 66.6595 25.009 65.9815 25.2891C65.3035 25.5692 64.5769 25.7132 63.8432 25.7129C62.3614 25.7122 60.9405 25.1237 59.8932 24.0767C58.8459 23.0298 58.2579 21.6102 58.2586 20.1302C58.2592 18.6503 58.8485 17.2312 59.8968 16.1852C60.68 15.408 61.6757 14.8792 62.7588 14.6654C63.8419 14.4515 64.9642 14.5621 65.9845 14.9833C67.0049 15.4045 67.8779 16.1175 68.4938 17.0326C69.1098 17.9478 69.4411 19.0243 69.4464 20.127C69.4577 20.8639 69.3168 21.5953 69.0327 22.2754C68.7485 22.9556 68.3271 23.57 67.7947 24.0803Z" fill="white"/>
<path d="M95.6188 0V20.127C95.6207 21.0465 95.3955 21.9522 94.9629 22.7639C94.5304 23.5756 93.9039 24.2681 93.1391 24.78C92.3744 25.292 91.4949 25.6075 90.5788 25.6985C89.6627 25.7896 88.7382 25.6535 87.8874 25.3022C87.0366 24.9509 86.2857 24.3953 85.7015 23.6847C85.1172 22.9741 84.7175 22.1305 84.538 21.2287C84.3584 20.3268 84.4045 19.3947 84.6721 18.5149C84.9397 17.6351 85.4206 16.8349 86.0721 16.1852C86.5821 15.6535 87.1965 15.2325 87.8769 14.9487C88.5572 14.6649 89.2889 14.5242 90.0261 14.5356V8.94421C86.9351 8.94421 84.2992 10.0401 82.1181 12.2319C79.9371 14.4237 78.8441 17.0554 78.8393 20.127C78.8393 23.214 79.9322 25.8496 82.1181 28.0337C84.304 30.2178 86.94 31.3103 90.0261 31.3112C93.1064 31.3112 95.739 30.2187 97.9239 28.0337C100.109 25.8486 101.205 23.2131 101.213 20.127V0H95.6188Z" fill="white"/>
<path d="M123.691 12.2319C121.506 10.0391 118.873 8.94325 115.793 8.94421C112.713 8.94518 110.076 10.0411 107.884 12.2319C105.699 14.415 104.606 17.0467 104.606 20.127C104.606 23.2073 105.699 25.8428 107.884 28.0337C110.07 30.2187 112.706 31.3112 115.793 31.3112C118.88 31.3112 121.513 30.2187 123.691 28.0337C125.885 25.8506 126.981 23.215 126.98 20.127C126.979 17.039 125.883 14.4073 123.691 12.2319ZM119.737 24.0803C118.682 25.0915 117.271 25.6492 115.809 25.6338C114.347 25.6183 112.948 25.0309 111.915 23.9976C110.881 22.9643 110.294 21.5674 110.28 20.1068C110.266 18.6463 110.826 17.2383 111.839 16.1852C112.622 15.4073 113.618 14.8779 114.701 14.6637C115.784 14.4494 116.907 14.5599 117.928 14.9812C118.948 15.4025 119.821 16.1158 120.437 17.0314C121.053 17.947 121.384 19.024 121.389 20.127C121.4 20.8638 121.26 21.5951 120.976 22.2753C120.692 22.9555 120.271 23.5699 119.738 24.0803" fill="white"/>
<path d="M166.708 12.2319C164.523 10.0391 161.89 8.94325 158.809 8.94421C155.728 8.94518 153.091 10.0411 150.899 12.2319C148.717 14.415 147.626 17.0467 147.626 20.127C147.626 23.2073 148.719 25.8428 150.904 28.0337C153.089 30.2187 155.725 31.3112 158.813 31.3112C161.901 31.3112 164.534 30.2187 166.712 28.0337C168.904 25.8506 170 23.215 170 20.127C170 17.039 168.904 14.4073 166.712 12.2319M162.757 24.0803C162.238 24.5983 161.622 25.009 160.944 25.2891C160.266 25.5692 159.539 25.7132 158.806 25.7129C157.324 25.7122 155.903 25.1237 154.856 24.0767C153.808 23.0298 153.22 21.6102 153.221 20.1302C153.222 18.6503 153.811 17.2312 154.859 16.1852C155.642 15.4078 156.638 14.8788 157.721 14.6649C158.804 14.4509 159.926 14.5615 160.947 14.9827C161.967 15.404 162.84 16.1171 163.456 17.0324C164.071 17.9477 164.402 19.0243 164.407 20.127C164.418 20.8638 164.278 21.595 163.994 22.2751C163.71 22.9552 163.289 23.5697 162.757 24.0803Z" fill="white"/>
<path d="M144.25 8.94421H138.658V31.3112H144.25V8.94421Z" fill="white"/>
<path d="M149.845 3.35876H144.252V8.94437H149.845V3.35876Z" fill="white"/>
<path d="M135.774 25.7242H130.182V31.3099H135.774V25.7242Z" fill="white"/>
</svg>
